<svg width="239" height="228" viewBox="0 0 239 228" fill="none" xmlns="http://www.w3.org/2000/svg">
<path fill-rule="evenodd" clip-rule="evenodd" d="M0 227.914H238.195V209.064H229.627V195.355H215.918V191.927V183.359H207.35V66.8318H210.777V61.6909H212.491V53.9796H229.627V34.2727L119.955 0L8.56818 34.2727V53.1227H25.7045V61.6909H27.4182V66.8318H30.8455V183.359H22.2773V191.927V195.355H8.56818V209.064H0V227.914ZM68.5455 183.359H61.6909H59.9773V66.8318H61.6909V63.4046H63.4046V59.9773H65.1182V53.1227H99.3909V61.6909H101.105V66.8318H104.532V183.359H95.9637V191.927H97.6773V195.355H66.8318V191.927H68.5455V183.359ZM171.364 195.355H155.941H140.518V191.927H142.232V183.359H133.664V181.645V66.8318H137.091V61.6909H138.805V53.1227H173.077V59.9773H174.791V63.4046H176.505V67.0168H178.218V183.359H169.65V191.927H171.364V195.355Z" fill="black"/>
<path fill-rule="evenodd" clip-rule="evenodd" d="M135.377 34.8255V15.4227L120.989 17.434L120.989 37.5072L135.377 34.8255ZM118.92 37.5072L104.532 34.8255V15.4227L118.92 17.434V37.5072Z" fill="white"/>
</svg>
